<svg width="31" height="32" viewBox="0 0 31 32" fill="none" xmlns="http://www.w3.org/2000/svg">
<g id="&#240;&#159;&#166;&#134; icon &#34;money send&#34;">
<g id="Group">
<path id="Vector" d="M11.9821 18.3915C11.9821 19.7766 13.053 20.8903 14.3667 20.8903H17.0511C18.1934 20.8903 19.1216 19.9194 19.1216 18.7056C19.1216 17.4063 18.5504 16.9351 17.7079 16.6352L13.41 15.1359C12.5676 14.8361 11.9964 14.3792 11.9964 13.0655C11.9964 11.8661 12.9245 10.8808 14.0668 10.8808H16.7513C18.0649 10.8808 19.1358 11.9946 19.1358 13.3796" stroke="#27A8C5" stroke-width="2" stroke-linecap="round" stroke-linejoin="round"/>
<path id="Vector_2" d="M15.5518 9.46722V22.3182" stroke="#27A8C5" stroke-width="2" stroke-linecap="round" stroke-linejoin="round"/>
<path id="Vector_3" d="M29.8307 15.8927C29.8307 23.7747 23.4338 30.1716 15.5518 30.1716C7.66988 30.1716 1.27295 23.7747 1.27295 15.8927C1.27295 8.01078 7.66988 1.61385 15.5518 1.61385" stroke="#27A8C5" stroke-width="2" stroke-linecap="round" stroke-linejoin="round"/>
<path id="Vector_4" d="M29.8307 7.32539V1.61385H24.1191" stroke="#27A8C5" stroke-width="2" stroke-linecap="round" stroke-linejoin="round"/>
<path id="Vector_5" d="M22.6913 8.75328L29.8307 1.61385" stroke="#27A8C5" stroke-width="2" stroke-linecap="round" stroke-linejoin="round"/>
</g>
</g>
</svg>
