<svg width="36" height="30" viewBox="0 0 36 30" fill="#27a8c5" xmlns="http://www.w3.org/2000/svg">
<g id="icn resize icn-md" clip-path="url(#clip0_0_87)">
<path id="Vector" fill-rule="evenodd" clip-rule="evenodd" d="M33.8759 28.911C33.8759 28.911 36.1323 28.911 36.1323 26.6342C36.1323 24.3574 33.8759 17.5271 24.8501 17.5271C15.8242 17.5271 13.5678 24.3574 13.5678 26.6342C13.5678 28.911 15.8242 28.911 15.8242 28.911H33.8759ZM15.8739 26.6342H33.8262C33.8368 26.633 33.8473 26.6315 33.8578 26.6297L33.8759 26.6251C33.8714 26.024 33.4991 24.28 32.161 22.709C30.9154 21.236 28.7267 19.8039 24.8501 19.8039C20.9757 19.8039 18.787 21.2382 17.5391 22.709C16.2011 24.28 15.8265 26.0263 15.8242 26.6251C15.8407 26.6283 15.8573 26.6314 15.8739 26.6342ZM24.8501 12.9735C26.047 12.9735 27.1948 12.4937 28.0412 11.6398C28.8875 10.7858 29.363 9.62761 29.363 8.41993C29.363 7.21224 28.8875 6.05403 28.0412 5.20007C27.1948 4.3461 26.047 3.86636 24.8501 3.86636C23.6532 3.86636 22.5053 4.3461 21.6589 5.20007C20.8126 6.05403 20.3371 7.21224 20.3371 8.41993C20.3371 9.62761 20.8126 10.7858 21.6589 11.6398C22.5053 12.4937 23.6532 12.9735 24.8501 12.9735ZM31.6194 8.41993C31.6194 9.3169 31.4443 10.2051 31.1041 11.0338C30.7639 11.8625 30.2653 12.6155 29.6367 13.2497C29.0081 13.884 28.2619 14.3871 27.4406 14.7304C26.6193 15.0736 25.739 15.2503 24.8501 15.2503C23.9611 15.2503 23.0808 15.0736 22.2595 14.7304C21.4382 14.3871 20.692 13.884 20.0634 13.2497C19.4348 12.6155 18.9362 11.8625 18.596 11.0338C18.2558 10.2051 18.0807 9.3169 18.0807 8.41993C18.0807 6.6084 18.7939 4.87108 20.0634 3.59013C21.3329 2.30919 23.0547 1.58957 24.8501 1.58957C26.6454 1.58957 28.3672 2.30919 29.6367 3.59013C30.9062 4.87108 31.6194 6.6084 31.6194 8.41993ZM15.6798 18.1646C14.7772 17.8778 13.8467 17.6893 12.9044 17.6022C12.3749 17.5514 11.8432 17.5263 11.3113 17.5271C2.28548 17.5271 0.0290222 24.3574 0.0290222 26.6342C0.0290222 28.1528 0.780423 28.911 2.28548 28.911H11.7987C11.4642 28.2002 11.2974 27.4209 11.3113 26.6342C11.3113 24.3347 12.162 21.985 13.7708 20.0224C14.3192 19.3531 14.9577 18.7269 15.6798 18.1646ZM11.1308 19.8039C7.36702 19.8494 5.23016 21.261 4.00039 22.709C2.65328 24.2891 2.28548 26.04 2.28548 26.6342H9.05485C9.05485 24.255 9.78369 21.8848 11.1308 19.8039ZM3.41371 9.55832C3.41371 7.7468 4.12691 6.00947 5.39641 4.72853C6.66592 3.44759 8.38773 2.72796 10.1831 2.72796C11.9784 2.72796 13.7002 3.44759 14.9698 4.72853C16.2393 6.00947 16.9525 7.7468 16.9525 9.55832C16.9525 11.3698 16.2393 13.1072 14.9698 14.3881C13.7002 15.6691 11.9784 16.3887 10.1831 16.3887C8.38773 16.3887 6.66592 15.6691 5.39641 14.3881C4.12691 13.1072 3.41371 11.3698 3.41371 9.55832ZM10.1831 5.00475C8.98618 5.00475 7.8383 5.4845 6.99197 6.33846C6.14563 7.19242 5.67017 8.35064 5.67017 9.55832C5.67017 10.766 6.14563 11.9242 6.99197 12.7782C7.8383 13.6321 8.98618 14.1119 10.1831 14.1119C11.38 14.1119 12.5279 13.6321 13.3742 12.7782C14.2205 11.9242 14.696 10.766 14.696 9.55832C14.696 8.35064 14.2205 7.19242 13.3742 6.33846C12.5279 5.4845 11.38 5.00475 10.1831 5.00475Z" fill="#27a8c5"/>
</g>
<defs>
<clipPath id="clip0_0_87">
<rect width="35.1276" height="28.9286" fill="#27a8c5" transform="translate(0.272964 0.613831)"/>
</clipPath>
</defs>
</svg>
