<svg width="10" height="8" viewBox="0 0 10 8" fill="none" xmlns="http://www.w3.org/2000/svg">
<path fill-rule="evenodd" clip-rule="evenodd" d="M0.920715 3.93225C0.920715 3.79364 0.978536 3.66071 1.08146 3.56269C1.18438 3.46468 1.32397 3.40962 1.46952 3.40962H7.828L5.47142 1.16646C5.36837 1.06832 5.31048 0.935217 5.31048 0.79643C5.31048 0.657643 5.36837 0.52454 5.47142 0.426403C5.57447 0.328265 5.71424 0.273132 5.85998 0.273132C6.00571 0.273132 6.14548 0.328265 6.24853 0.426403L9.54137 3.56223C9.59248 3.61077 9.63303 3.66845 9.6607 3.73194C9.68836 3.79544 9.7026 3.86351 9.7026 3.93225C9.7026 4.001 9.68836 4.06907 9.6607 4.13256C9.63303 4.19606 9.59248 4.25373 9.54137 4.30228L6.24853 7.4381C6.14548 7.53624 6.00571 7.59137 5.85998 7.59137C5.71424 7.59137 5.57447 7.53624 5.47142 7.4381C5.36837 7.33997 5.31048 7.20686 5.31048 7.06808C5.31048 6.92929 5.36837 6.79619 5.47142 6.69805L7.828 4.45489H1.46952C1.32397 4.45489 1.18438 4.39983 1.08146 4.30181C0.978536 4.2038 0.920715 4.07087 0.920715 3.93225Z" fill="white"/>
</svg>
