<svg width="33" height="30" viewBox="0 0 33 30" fill="none" xmlns="http://www.w3.org/2000/svg">
<g id="&#240;&#159;&#166;&#134; icon &#34;wallet&#34;">
<g id="Group">
<path id="Vector" d="M1.27295 15.1139C1.27295 11.4419 3.73295 8.87686 7.55795 8.44486C7.94795 8.39086 8.35295 8.36386 8.77295 8.36386H23.7729C24.1629 8.36386 24.5379 8.37735 24.8979 8.43135C28.7679 8.83635 31.2729 11.4149 31.2729 15.1139V21.8639C31.2729 25.9139 28.2729 28.6139 23.7729 28.6139H8.77295C4.27295 28.6139 1.27295 25.9139 1.27295 21.8639V20.5274" stroke="#27A8C5" stroke-width="2" stroke-linecap="round" stroke-linejoin="round"/>
<path id="Vector_2" d="M24.8972 8.43135C24.5372 8.37735 24.1622 8.36386 23.7722 8.36386H8.77213C8.35213 8.36386 7.94713 8.39086 7.55713 8.44486C7.76713 8.06686 8.06713 7.71586 8.42713 7.39186L13.3022 2.99085C15.3572 1.15485 18.6872 1.15485 20.7422 2.99085L23.3672 5.38037C24.3272 6.23087 24.8372 7.31085 24.8972 8.43135Z" stroke="#27A8C5" stroke-width="2" stroke-linecap="round" stroke-linejoin="round"/>
<path id="Vector_3" d="M31.2729 15.7889H26.7729C25.1229 15.7889 23.7729 17.0039 23.7729 18.4889C23.7729 19.9739 25.1229 21.1889 26.7729 21.1889H31.2729" stroke="#27A8C5" stroke-width="2" stroke-linecap="round" stroke-linejoin="round"/>
</g>
</g>
</svg>
